<svg xmlns="http://www.w3.org/2000/svg" xmlns:xlink="http://www.w3.org/1999/xlink" width="500" zoomAndPan="magnify" viewBox="0 0 375 374.999991" height="500" preserveAspectRatio="xMidYMid meet" version="1.0"><defs><g/></defs><g fill="#ff00ff" fill-opacity="1"><g transform="translate(24.340824, 247.872222)"><g><path d="M 51.578125 -103.25 L 51.578125 -86.1875 L 34.4375 -86.1875 L 34.4375 -34.28125 L 51.578125 -34.28125 L 51.578125 -17.21875 L 86.03125 -17.21875 L 86.03125 -34.4375 L 120.46875 -34.4375 L 120.46875 -17.21875 L 103.25 -17.21875 L 103.25 0 L 34.4375 0 L 34.4375 -17.21875 L 17.21875 -17.21875 L 17.21875 -34.4375 L 0 -34.4375 L 0 -86.03125 L 17.21875 -86.03125 L 17.21875 -103.25 L 34.4375 -103.25 L 34.4375 -120.46875 L 103.25 -120.46875 L 103.25 -103.25 L 120.46875 -103.25 L 120.46875 -86.03125 L 86.03125 -86.03125 L 86.03125 -103.25 Z M 51.578125 -103.25 "/></g></g></g><g fill="#00ffff" fill-opacity="1"><g transform="translate(17.888897, 247.872222)"><g><path d="M 51.578125 -103.25 L 51.578125 -86.1875 L 34.4375 -86.1875 L 34.4375 -34.28125 L 51.578125 -34.28125 L 51.578125 -17.21875 L 86.03125 -17.21875 L 86.03125 -34.4375 L 120.46875 -34.4375 L 120.46875 -17.21875 L 103.25 -17.21875 L 103.25 0 L 34.4375 0 L 34.4375 -17.21875 L 17.21875 -17.21875 L 17.21875 -34.4375 L 0 -34.4375 L 0 -86.03125 L 17.21875 -86.03125 L 17.21875 -103.25 L 34.4375 -103.25 L 34.4375 -120.46875 L 103.25 -120.46875 L 103.25 -103.25 L 120.46875 -103.25 L 120.46875 -86.03125 L 86.03125 -86.03125 L 86.03125 -103.25 Z M 51.578125 -103.25 "/></g></g></g><g fill="#ee6c4d" fill-opacity="1"><g transform="translate(21.11486, 247.872222)"><g><path d="M 51.578125 -103.25 L 51.578125 -86.1875 L 34.4375 -86.1875 L 34.4375 -34.28125 L 51.578125 -34.28125 L 51.578125 -17.21875 L 86.03125 -17.21875 L 86.03125 -34.4375 L 120.46875 -34.4375 L 120.46875 -17.21875 L 103.25 -17.21875 L 103.25 0 L 34.4375 0 L 34.4375 -17.21875 L 17.21875 -17.21875 L 17.21875 -34.4375 L 0 -34.4375 L 0 -86.03125 L 17.21875 -86.03125 L 17.21875 -103.25 L 34.4375 -103.25 L 34.4375 -120.46875 L 103.25 -120.46875 L 103.25 -103.25 L 120.46875 -103.25 L 120.46875 -86.03125 L 86.03125 -86.03125 L 86.03125 -103.25 Z M 51.578125 -103.25 "/></g></g></g><g fill="#ee6c4d" fill-opacity="1"><g transform="translate(101.79814, 206.767734)"><g><path d="M 6.1875 -30.953125 L 6.1875 -37.140625 L 12.390625 -37.140625 L 12.390625 -43.328125 L 37.140625 -43.328125 L 37.140625 -37.140625 L 43.328125 -37.140625 L 43.328125 -30.953125 L 49.5 -30.953125 L 49.5 -12.390625 L 43.328125 -12.390625 L 43.328125 -6.1875 L 37.140625 -6.1875 L 37.140625 0 L 12.390625 0 L 12.390625 -6.1875 L 6.1875 -6.1875 L 6.1875 -12.390625 L 0 -12.390625 L 0 -30.953125 Z M 30.953125 -30.953125 L 30.953125 -37.140625 L 18.5625 -37.140625 L 18.5625 -31 L 12.390625 -31 L 12.390625 -12.328125 L 18.5625 -12.328125 L 18.5625 -6.1875 L 30.953125 -6.1875 L 30.953125 -12.390625 L 37.140625 -12.390625 L 37.140625 -30.953125 Z M 30.953125 -30.953125 "/></g></g></g><g fill="#ee6c4d" fill-opacity="1"><g transform="translate(161.796166, 206.767734)"><g><path d="M 30.953125 -24.75 L 30.953125 -43.328125 L 49.5 -43.328125 L 49.5 0 L 37.109375 0 L 37.109375 -18.5625 L 30.953125 -18.5625 L 30.953125 0 L 18.5625 0 L 18.5625 -18.5625 L 12.390625 -18.5625 L 12.390625 0 L 0 0 L 0 -43.328125 L 18.5625 -43.328125 L 18.5625 -24.75 Z M 30.953125 -24.75 "/></g></g></g><g fill="#ee6c4d" fill-opacity="1"><g transform="translate(221.794193, 206.767734)"><g><path d="M 6.1875 -6.1875 L 0 -6.1875 L 0 -43.328125 L 12.390625 -43.328125 L 12.390625 -6.1875 L 30.953125 -6.1875 L 30.953125 -43.328125 L 43.328125 -43.328125 L 43.328125 -6.1875 L 37.140625 -6.1875 L 37.140625 0 L 6.1875 0 Z M 6.1875 -6.1875 "/></g></g></g><g fill="#ee6c4d" fill-opacity="1"><g transform="translate(275.600413, 206.767734)"><g><path d="M 43.328125 -43.328125 L 43.328125 0 L 30.953125 0 L 30.953125 -12.390625 L 24.75 -12.390625 L 24.75 -18.5625 L 18.5625 -18.5625 L 18.5625 -24.75 L 12.390625 -24.75 L 12.390625 0 L 0 0 L 0 -43.328125 L 12.390625 -43.328125 L 12.390625 -37.140625 L 18.5625 -37.140625 L 18.5625 -30.953125 L 24.75 -30.953125 L 24.75 -24.75 L 30.953125 -24.75 L 30.953125 -43.328125 Z M 43.328125 -43.328125 "/></g></g></g><g fill="#ee6c4d" fill-opacity="1"><g transform="translate(329.406632, 206.767734)"><g><path d="M 12.390625 -6.1875 L 37.140625 -6.1875 L 37.140625 0 L 0 0 L 0 -43.328125 L 37.140625 -43.328125 L 37.140625 -37.140625 L 12.390625 -37.140625 L 12.390625 -24.75 L 30.953125 -24.75 L 30.953125 -18.5625 L 12.390625 -18.5625 Z M 12.390625 -6.1875 "/></g></g></g></svg>