<svg xmlns="http://www.w3.org/2000/svg" xmlns:xlink="http://www.w3.org/1999/xlink" width="500" zoomAndPan="magnify" viewBox="0 0 375 374.999991" height="500" preserveAspectRatio="xMidYMid meet" version="1.0"><defs><g/></defs><g fill="#ff00ff" fill-opacity="1"><g transform="translate(67.469059, 297.74998)"><g><path d="M 94.40625 -188.96875 L 94.40625 -157.765625 L 63.046875 -157.765625 L 63.046875 -62.734375 L 94.40625 -62.734375 L 94.40625 -31.515625 L 157.453125 -31.515625 L 157.453125 -63.046875 L 220.5 -63.046875 L 220.5 -31.515625 L 188.96875 -31.515625 L 188.96875 0 L 63.046875 0 L 63.046875 -31.515625 L 31.515625 -31.515625 L 31.515625 -63.046875 L 0 -63.046875 L 0 -157.453125 L 31.515625 -157.453125 L 31.515625 -188.96875 L 63.046875 -188.96875 L 63.046875 -220.5 L 188.96875 -220.5 L 188.96875 -188.96875 L 220.5 -188.96875 L 220.5 -157.453125 L 157.453125 -157.453125 L 157.453125 -188.96875 Z M 94.40625 -188.96875 "/></g></g></g><g fill="#00ffff" fill-opacity="1"><g transform="translate(55.66016, 297.74998)"><g><path d="M 94.40625 -188.96875 L 94.40625 -157.765625 L 63.046875 -157.765625 L 63.046875 -62.734375 L 94.40625 -62.734375 L 94.40625 -31.515625 L 157.453125 -31.515625 L 157.453125 -63.046875 L 220.5 -63.046875 L 220.5 -31.515625 L 188.96875 -31.515625 L 188.96875 0 L 63.046875 0 L 63.046875 -31.515625 L 31.515625 -31.515625 L 31.515625 -63.046875 L 0 -63.046875 L 0 -157.453125 L 31.515625 -157.453125 L 31.515625 -188.96875 L 63.046875 -188.96875 L 63.046875 -220.5 L 188.96875 -220.5 L 188.96875 -188.96875 L 220.5 -188.96875 L 220.5 -157.453125 L 157.453125 -157.453125 L 157.453125 -188.96875 Z M 94.40625 -188.96875 "/></g></g></g><g fill="#ee6c4d" fill-opacity="1"><g transform="translate(61.564609, 297.74998)"><g><path d="M 94.40625 -188.96875 L 94.40625 -157.765625 L 63.046875 -157.765625 L 63.046875 -62.734375 L 94.40625 -62.734375 L 94.40625 -31.515625 L 157.453125 -31.515625 L 157.453125 -63.046875 L 220.5 -63.046875 L 220.5 -31.515625 L 188.96875 -31.515625 L 188.96875 0 L 63.046875 0 L 63.046875 -31.515625 L 31.515625 -31.515625 L 31.515625 -63.046875 L 0 -63.046875 L 0 -157.453125 L 31.515625 -157.453125 L 31.515625 -188.96875 L 63.046875 -188.96875 L 63.046875 -220.5 L 188.96875 -220.5 L 188.96875 -188.96875 L 220.5 -188.96875 L 220.5 -157.453125 L 157.453125 -157.453125 L 157.453125 -188.96875 Z M 94.40625 -188.96875 "/></g></g></g><g fill="#ee6c4d" fill-opacity="1"><g transform="translate(220.191483, 222.7656)"><g><path d="M 11.34375 -56.640625 L 11.34375 -67.96875 L 22.671875 -67.96875 L 22.671875 -79.3125 L 67.96875 -79.3125 L 67.96875 -67.96875 L 79.3125 -67.96875 L 79.3125 -56.640625 L 90.59375 -56.640625 L 90.59375 -22.671875 L 79.3125 -22.671875 L 79.3125 -11.34375 L 67.96875 -11.34375 L 67.96875 0 L 22.671875 0 L 22.671875 -11.34375 L 11.34375 -11.34375 L 11.34375 -22.671875 L 0 -22.671875 L 0 -56.640625 Z M 56.640625 -56.640625 L 56.640625 -67.96875 L 33.953125 -67.96875 L 33.953125 -56.75 L 22.671875 -56.75 L 22.671875 -22.5625 L 33.953125 -22.5625 L 33.953125 -11.34375 L 56.640625 -11.34375 L 56.640625 -22.671875 L 67.96875 -22.671875 L 67.96875 -56.640625 Z M 56.640625 -56.640625 "/></g></g></g></svg>